<?xml version="1.0" encoding="utf-8"?>
<!-- Generator: Adobe Illustrator 23.0.0, SVG Export Plug-In . SVG Version: 6.00 Build 0)  -->
<svg version="1.1" id="Layer_1" xmlns="http://www.w3.org/2000/svg" xmlns:xlink="http://www.w3.org/1999/xlink" x="0px" y="0px"
	 viewBox="0 0 780 900" style="enable-background:new 0 0 780 900;" xml:space="preserve">
<g transform="translate(0,-952.36216)">
	<path d="M390,952.36l-390,225v450.01l12.92,7.46L390,1852.36l390-225v-450.01L390,952.36L390,952.36z M390,1028.31l155.77,230.25
		H234.23C234.23,1258.56,390,1028.31,390,1028.31z M305.69,1060.67L177.6,1249.99l-100.03-57.71L305.69,1060.67z M474.33,1060.67
		l228.1,131.6l-100.02,57.71L474.33,1060.67L474.33,1060.67z M51.71,1237.02l100.04,57.71L51.71,1500.24V1237.02z M728.29,1237.02
		v263.24l-100.04-205.53l100.03-57.71H728.29z M230.33,1310.22h319.35L390,1586.59C390,1586.59,230.33,1310.22,230.33,1310.22z
		 M187.49,1339.44l155.79,269.61l-277.43-19.68L187.49,1339.44L187.49,1339.44z M592.51,1339.44l121.66,249.93l-277.43,19.68
		L592.51,1339.44L592.51,1339.44z M136,1646.15l228.14,16.2v115.43L136,1646.15z M644.01,1646.15l-228.15,131.62v-115.43
		L644.01,1646.15z"/>
</g>
</svg>
