<svg xmlns="http://www.w3.org/2000/svg" viewBox="0 0 5000 5000"><defs><style>.cls-1{fill:#fffbd5;}</style></defs><title>Artboard 1</title><g id="Layer_2"><circle class="cls-1" cx="2495.73" cy="2503" r="2250"/></g><g id="Layer_1"><ellipse cx="2495.73" cy="2503" rx="2024.46" ry="2000"/></g><g id="Layer_3"><path class="cls-1" d="M2525.35,750h11.75c52.67,76.09,43.75,162,42,247.73-1.28,62,3.78,124.11,7,186.13,2,38.2,12.64,77.22,7.72,114.32-25.94,195.52,9.89,254.26,197.81,313.07,29.79,9.32,59,20.65,88.83,29.65,117.27,35.32,213.55,99.31,292.86,194.36,118.63,142.17,231.34,286.35,263.5,475.33,12,70.52,18.91,141.91,28.14,212.9V2594c-19.16,95.39-37.78,190.9-57.83,286.11-5.95,28.27-10,59.48-25.06,82.85-66.5,103.45-130.75,209.91-233.93,282.71-76.58,54-153.15,108.85-234.32,155.28-45.85,26.22-99.82,44.55-152.16,51.88C2614,3473.45,2588,3490.18,2609,3638.64c26,184.47-3.7,361.75-35.46,540.52-3.2,18.07-8.81,35.71-16.19,65-13.16-33.44-24.53-54.35-29.7-76.7-48.32-208.91-96.78-417.81-141.95-627.41-7.4-34.35-18.74-48.83-53.6-55.89-62.62-12.67-126.18-26.66-185.08-50.59-163.51-66.43-307.07-161.85-412.18-307.72-6.79-9.41-15.67-17.57-24.56-25.16-97.45-83.31-152.58-192.54-183.43-313.59-21-82.57-31.55-167.83-46.77-251.89v-94c15.68-43.09,34.5-85.33,46.49-129.42,47.69-175.46,131.92-331.78,243.24-474.33,9.47-12.13,20.26-24.18,32.82-32.8,148.65-102.07,285.6-223.2,468.22-268,84.62-20.77,112.43-94,127.22-172.48,24-127.45,48.28-254.88,74.27-381.94C2488.23,904.5,2507.56,827.41,2525.35,750Zm-161,1030.47c-99.22-20.25-187.22-6.35-254.45,76.79a145.51,145.51,0,0,1-34.9,31.24c-137.56,86.72-182.81,244.63-279.92,362.47-5.67,6.89-7.44,17.79-9,27.16-22,134.56-46.8,268.37-11.85,405.48,19.77,77.51,27.42,158,88.16,218.93,31.6,31.7,66.13,62.7,89.26,100.23,73.6,119.38,185.12,187.92,308.82,241.31,34.57,14.92,71.63,24.07,122.23,40.69,6.77-118.7,18.38-225.25,17.64-331.71-1.12-159.71-13.32-319.33-15.69-479.07-.85-57.8,21.58-116.27,18.59-173.66C2394.3,2127.69,2378,1955.42,2364.38,1780.47Zm319.75-9.27-29.65,12c-13.11,79.44-53.08,166-34.18,237,52.34,196.43,55.13,388,15.06,585-24.54,120.67-35.43,242-5.63,366.27,18.73,78.14,15.29,161.64,21.09,242.79,1,14.16-1.5,28.58-2.82,49.79,37.74-15.44,69.06-26.11,98.47-40.64,132.66-65.56,244.93-157.81,354.94-256.36,63.12-56.53,103.35-114.6,107-196.83q8.37-190.24,12.27-380.68c2.68-138.28-68.22-260.32-151.07-348C2964,1929.74,2814.63,1859.39,2684.13,1771.2Z"/></g></svg>