<?xml version="1.0" standalone="no"?>
<!DOCTYPE svg PUBLIC "-//W3C//DTD SVG 20010904//EN"
 "http://www.w3.org/TR/2001/REC-SVG-20010904/DTD/svg10.dtd">
<svg version="1.0" xmlns="http://www.w3.org/2000/svg"
 width="4500.000000pt" height="4500.000000pt" viewBox="0 0 4500.000000 4500.000000"
 preserveAspectRatio="xMidYMid meet">
<metadata>
Created by potrace 1.11, written by Peter Selinger 2001-2013
</metadata>
<g transform="translate(0.000000,4500.000000) scale(0.100000,-0.100000)"
fill="#000000" stroke="none">
<path d="M22780 39965 c0 -2 -81 -348 -179 -767 -99 -420 -211 -909 -251
-1087 -125 -568 -428 -2098 -685 -3456 -168 -889 -204 -1069 -247 -1224 -159
-580 -406 -948 -783 -1169 -113 -66 -247 -117 -450 -171 -510 -134 -921 -291
-1415 -537 -652 -326 -1145 -644 -2370 -1529 -245 -177 -551 -395 -680 -485
-279 -194 -361 -272 -555 -524 -406 -526 -809 -1126 -1127 -1681 -342 -596
-634 -1212 -870 -1835 -145 -382 -232 -648 -372 -1135 -83 -292 -139 -455
-292 -848 -59 -150 -121 -314 -140 -365 l-34 -93 0 -470 0 -470 120 -719 c156
-940 208 -1217 301 -1612 235 -1006 593 -1816 1101 -2494 209 -279 462 -551
758 -814 193 -172 189 -168 353 -385 256 -341 482 -599 798 -910 231 -227 391
-369 629 -560 698 -559 1516 -1034 2473 -1436 492 -206 971 -349 1662 -494
395 -83 461 -100 552 -145 100 -49 167 -114 216 -208 50 -97 65 -149 172 -643
290 -1333 1151 -5126 1337 -5889 33 -136 72 -241 200 -545 47 -110 88 -209 93
-220 9 -24 6 -33 98 325 105 411 302 1578 401 2375 97 782 132 1365 123 2025
-7 499 -32 856 -88 1255 -62 446 -83 796 -60 989 42 357 182 553 495 688 189
82 467 146 946 218 510 76 752 138 1130 287 502 198 1157 600 2420 1486 727
510 826 590 1160 926 443 447 787 906 1435 1911 332 516 308 451 486 1315 50
242 191 944 315 1560 l224 1120 0 370 c0 203 -5 399 -10 435 -5 36 -39 310
-75 610 -137 1126 -203 1544 -310 1955 -265 1015 -755 1955 -1616 3097 -331
438 -908 1143 -1155 1410 -488 526 -1072 964 -1709 1278 -367 182 -445 211
-1560 580 -713 236 -977 333 -1212 445 -611 292 -943 654 -1066 1165 -48 195
-59 299 -64 596 -6 310 3 465 45 814 41 339 38 571 -11 950 -36 276 -55 540
-98 1375 -14 277 -17 846 -5 1390 9 436 2 633 -30 879 -50 387 -165 725 -344
1009 l-55 87 -62 0 c-35 0 -63 -2 -63 -5z m-2045 -10236 c96 -9 425 -57 433
-64 1 -1 9 -83 17 -181 8 -99 51 -618 95 -1154 154 -1883 181 -2248 257 -3410
9 -146 17 -391 17 -545 1 -313 2 -306 -89 -840 -81 -472 -87 -543 -86 -875 1
-418 15 -821 71 -2150 38 -892 47 -1111 62 -1520 16 -457 17 -1701 0 -1990
-23 -409 -42 -708 -87 -1335 -24 -341 -50 -714 -57 -828 -12 -202 -13 -208
-32 -204 -22 4 -342 104 -671 209 -282 89 -417 140 -655 245 -1415 627 -2310
1333 -2939 2321 -179 281 -279 400 -711 837 -385 390 -457 478 -593 736 -157
295 -240 561 -421 1349 -30 129 -71 303 -90 385 -176 745 -200 1506 -80 2525
52 441 218 1496 253 1610 14 43 38 87 72 130 286 362 473 644 899 1360 428
719 611 996 871 1320 299 373 575 629 961 891 204 139 278 204 422 373 544
638 1185 886 2081 805z m3847 -112 c233 -153 545 -347 1078 -672 1121 -682
1657 -1054 2160 -1500 891 -790 1543 -1810 1789 -2800 116 -463 135 -752 112
-1688 -31 -1271 -99 -3124 -122 -3347 -49 -476 -244 -917 -587 -1330 -171
-205 -357 -385 -830 -798 -1128 -987 -1998 -1614 -2932 -2112 -308 -165 -458
-231 -968 -430 -144 -57 -264 -101 -266 -99 -2 2 2 69 10 149 16 175 17 305 4
510 -5 85 -17 335 -25 555 -35 917 -68 1225 -186 1743 -107 472 -156 885 -166
1397 -13 666 55 1324 227 2197 186 938 263 1638 277 2488 17 1094 -101 2100
-377 3209 -87 350 -94 403 -87 661 9 333 28 429 277 1395 23 88 56 234 74 325
l33 165 134 56 c74 31 142 57 151 58 9 1 108 -59 220 -132z"/>
</g>
</svg>
